<?xml version="1.0" standalone="no"?>
<!DOCTYPE svg PUBLIC "-//W3C//DTD SVG 20010904//EN"
 "http://www.w3.org/TR/2001/REC-SVG-20010904/DTD/svg10.dtd">
<svg version="1.0" xmlns="http://www.w3.org/2000/svg"
 width="1200.000000pt" height="1200.000000pt" viewBox="0 0 1200.000000 1200.000000"
 preserveAspectRatio="xMidYMid meet">

<g transform="translate(0.000000,1200.000000) scale(0.100000,-0.100000)"
fill="#000000" stroke="none">
<path d="M2165 7295 c-46 -45 -19 -115 45 -115 65 0 94 79 44 119 -35 27 -59
26 -89 -4z"/>
<path d="M2612 7208 c-45 -22 -39 -105 9 -122 87 -30 139 92 53 124 -30 12
-33 12 -62 -2z"/>
<path d="M1792 7150 c-44 -41 -15 -120 43 -120 31 0 75 41 75 70 0 28 -43 70
-73 70 -13 0 -33 -9 -45 -20z"/>
<path d="M2930 6940 c-42 -42 -10 -120 50 -120 31 0 70 39 70 70 0 10 -9 29
-21 44 -25 32 -70 35 -99 6z"/>
<path d="M1503 6856 c-48 -41 -20 -118 42 -118 67 0 94 108 32 128 -40 14 -47
13 -74 -10z"/>
<path d="M3530 6605 l0 -155 -85 0 -85 0 0 -75 0 -75 84 0 84 0 4 -202 c4
-186 6 -207 27 -255 26 -59 90 -123 148 -149 52 -24 203 -24 256 0 80 36 147
117 162 198 l7 35 -66 17 c-81 20 -86 20 -86 0 0 -31 -43 -93 -76 -109 -75
-35 -167 -4 -191 65 -7 22 -12 104 -12 218 l-1 182 160 0 160 0 0 75 0 75
-160 0 -160 0 0 155 0 155 -85 0 -85 0 0 -155z"/>
<path d="M5530 6225 l0 -535 203 0 c233 0 282 9 366 67 133 91 202 285 187
521 -12 201 -75 337 -191 417 -79 54 -140 65 -367 65 l-198 0 0 -535z m440
363 c25 -13 59 -42 77 -66 53 -69 68 -136 68 -297 0 -160 -20 -240 -77 -309
-50 -61 -94 -76 -225 -76 l-113 0 0 385 0 385 113 0 c97 0 119 -3 157 -22z"/>
<path d="M1350 6480 c-27 -27 -25 -66 5 -95 30 -30 54 -31 89 -4 50 40 21 119
-44 119 -17 0 -39 -9 -50 -20z"/>
<path d="M4705 6456 c-200 -48 -315 -231 -284 -450 18 -133 81 -228 186 -284
188 -99 438 -46 541 115 73 115 84 289 25 415 -35 74 -92 137 -152 168 -93 47
-214 61 -316 36z m231 -172 c144 -89 144 -340 0 -429 -44 -27 -58 -30 -126
-30 -67 0 -82 4 -118 28 -84 55 -125 164 -103 273 25 129 109 196 237 191 48
-2 73 -9 110 -33z"/>
<path d="M6835 6456 c-200 -48 -315 -231 -284 -450 18 -133 81 -228 186 -284
188 -99 438 -46 541 115 73 115 84 289 25 415 -35 74 -92 137 -152 168 -93 47
-214 61 -316 36z m231 -172 c144 -89 144 -340 0 -429 -44 -27 -58 -30 -126
-30 -67 0 -82 4 -118 28 -84 55 -125 164 -103 273 25 129 109 196 237 191 48
-2 73 -9 110 -33z"/>
<path d="M1463 6080 c-69 -28 -48 -133 27 -133 59 0 91 67 53 111 -22 25 -51
33 -80 22z"/>
<path d="M2860 5798 c-28 -31 -26 -72 6 -97 15 -12 34 -21 44 -21 31 0 70 39
70 71 0 62 -78 92 -120 47z"/>
<path d="M1707 5733 c-50 -56 6 -140 75 -114 14 5 29 15 33 21 13 21 8 71 -10
90 -23 25 -76 26 -98 3z"/>
<path d="M2486 5598 c-24 -34 -20 -73 10 -97 67 -53 154 39 94 99 -28 28 -84
27 -104 -2z"/>
<path d="M2075 5575 c-30 -30 -31 -54 -4 -89 39 -49 119 -22 119 42 0 33 -8
45 -37 61 -33 17 -51 14 -78 -14z"/>
</g>
</svg>
